<?xml version="1.0" encoding="UTF-8"?>
<svg id="Layer_1" data-name="Layer 1" xmlns="http://www.w3.org/2000/svg" version="1.1" xmlns:xlink="http://www.w3.org/1999/xlink" viewBox="0 0 400 400">
  <defs>
    <style>
      .cls-1 {
        fill: url(#linear-gradient);
      }

      .cls-1, .cls-2, .cls-3 {
        stroke-width: 0px;
      }

      .cls-2 {
        fill: #000;
      }

      .cls-3 {
        fill: #fff;
      }
    </style>
    <linearGradient id="linear-gradient" x1="177.65" y1="196.24" x2="222.82" y2="196.24" gradientUnits="userSpaceOnUse">
      <stop offset="0" stop-color="#8f0707"/>
      <stop offset="1" stop-color="#4e1212"/>
    </linearGradient>
  </defs>
  <ellipse class="cls-3" cx="115.15" cy="203.31" rx="80.81" ry="83.84"/>
  <path class="cls-2" d="M116.16,79.07C52.01,79.07,0,131.08,0,195.23s52.01,116.16,116.16,116.16,116.16-52.01,116.16-116.16-52.01-116.16-116.16-116.16ZM115.15,287.15c-44.63,0-80.81-37.54-80.81-83.84s36.18-83.84,80.81-83.84,80.81,37.54,80.81,83.84-36.18,83.84-80.81,83.84Z"/>
  <path class="cls-3" d="M283.84,81.09c-64.15,0-116.16,52.01-116.16,116.16s52.01,116.16,116.16,116.16,116.16-52.01,116.16-116.16-52.01-116.16-116.16-116.16ZM282.83,289.17c-44.63,0-80.81-37.54-80.81-83.84s36.18-83.84,80.81-83.84,80.81,37.54,80.81,83.84-36.18,83.84-80.81,83.84Z"/>
  <ellipse class="cls-2" cx="282.83" cy="205.33" rx="80.81" ry="83.84"/>
  <path class="cls-1" d="M199.04,276.6c6.8-6.93,12.73-14.7,17.63-23.15-9.22-13.62-14.65-30.2-14.65-48.11,0-21.6,7.87-41.28,20.8-56.14-5.35-12.37-12.78-23.61-21.86-33.3-9.69,9.87-17.62,21.47-23.31,34.28,11.44,14.47,18.31,32.97,18.31,53.14,0,17.99-5.48,34.65-14.78,48.3,4.84,9.12,10.86,17.51,17.86,24.98Z"/>
</svg>