<?xml version="1.0" encoding="UTF-8"?>
<svg id="Layer_1" data-name="Layer 1" xmlns="http://www.w3.org/2000/svg" version="1.1" viewBox="0 0 400 400">
  <defs>
    <style>
      .cls-1 {
        fill: #4e1212;
        stroke-width: 0px;
      }
    </style>
  </defs>
  <path class="cls-1" d="M116.16,79.07C52.01,79.07,0,131.08,0,195.23s52.01,116.16,116.16,116.16,116.16-52.01,116.16-116.16-52.01-116.16-116.16-116.16ZM115.15,287.15c-44.63,0-80.81-37.54-80.81-83.84s36.18-83.84,80.81-83.84,80.81,37.54,80.81,83.84-36.18,83.84-80.81,83.84Z"/>
  <g>
    <path class="cls-1" d="M176.12,240.8c6.24-11,9.84-23.81,9.84-37.48,0-15.59-4.67-30.06-12.61-41.99-3.68,11.31-5.67,23.39-5.67,35.93,0,15.4,3,30.1,8.45,43.54Z"/>
    <path class="cls-1" d="M283.84,81.09c-28.88,0-55.29,10.54-75.61,27.98,8.97,9.57,16.46,20.54,22.12,32.54,14.12-12.53,32.44-20.12,52.48-20.12,44.63,0,80.81,37.54,80.81,83.84s-36.18,83.84-80.81,83.84c-23.61,0-44.84-10.51-59.62-27.25-4.9,7.84-10.64,15.1-17.08,21.67,20.58,18.54,47.83,29.83,77.71,29.83,64.15,0,116.16-52.01,116.16-116.16s-52.01-116.16-116.16-116.16Z"/>
  </g>
  <path class="cls-1" d="M116.16,79.07C52.01,79.07,0,131.08,0,195.23s52.01,116.16,116.16,116.16,116.16-52.01,116.16-116.16-52.01-116.16-116.16-116.16ZM115.15,287.15c-44.63,0-80.81-37.54-80.81-83.84s36.18-83.84,80.81-83.84,80.81,37.54,80.81,83.84-36.18,83.84-80.81,83.84Z"/>
</svg>